<?xml version="1.0" encoding="UTF-8" standalone="no" ?>
<!DOCTYPE svg PUBLIC "-//W3C//DTD SVG 1.1//EN" "http://www.w3.org/Graphics/SVG/1.1/DTD/svg11.dtd">
<svg xmlns="http://www.w3.org/2000/svg" xmlns:xlink="http://www.w3.org/1999/xlink" version="1.1" width="1280" height="1024" viewBox="0 0 1280 1024" xml:space="preserve">
<desc>Created with Fabric.js 5.3.0</desc>
<defs>
</defs>
<g transform="matrix(1 0 0 1 640 512)" id="background-logo"  >
<rect style="stroke: none; stroke-width: 0; stroke-dasharray: none; stroke-linecap: butt; stroke-dashoffset: 0; stroke-linejoin: miter; stroke-miterlimit: 4; fill: rgb(255,255,255); fill-opacity: 0; fill-rule: nonzero; opacity: 1;"  paint-order="stroke"  x="-640" y="-512" rx="0" ry="0" width="1280" height="1024" />
</g>
<g transform="matrix(1.9211538461538462 0 0 1.9211538461538462 640.3692341809581 400.14100841619876)" id="logo-logo"  >
<g style=""  paint-order="stroke"   >
		<g transform="matrix(1.815303212609075 0 0 1.815303212609075 0 0)"  >
<linearGradient id="SVGID_4_26831" gradientUnits="userSpaceOnUse" gradientTransform="matrix(1 0 0 1 265.823 343.152)"  x1="40.176000000000016" y1="0" x2="40.176000000000016" y2="105.69600000000003">
<stop offset="0%" style="stop-color:rgb(13,74,174);stop-opacity: 1"/>
<stop offset="100%" style="stop-color:rgb(94,37,99);stop-opacity: 1"/>
</linearGradient>
<path style="stroke: none; stroke-width: 1; stroke-dasharray: none; stroke-linecap: butt; stroke-dashoffset: 0; stroke-linejoin: miter; stroke-miterlimit: 4; fill: url(#SVGID_4_26831); fill-rule: nonzero; opacity: 1;"  paint-order="stroke"  transform=" translate(-305.999, -396)" d="M 311.544 362.376 C 320.4 363.59999999999997 328.392 367.70399999999995 334.44 373.75199999999995 C 341.711 381.02399999999994 346.175 391.1039999999999 346.175 402.19199999999995 C 346.175 413.28 341.711 423.35999999999996 334.44 430.631 C 333.36 431.71099999999996 332.28 432.719 331.055 433.655 C 330.335 432.93399999999997 329.687 432.215 329.039 431.56699999999995 C 330.191 430.62999999999994 331.34299999999996 429.69499999999994 332.351 428.61499999999995 C 339.12 421.84599999999995 343.295 412.55799999999994 343.295 402.26199999999994 C 343.295 391.96599999999995 339.119 382.679 332.351 375.90999999999997 C 326.952 370.51 319.824 366.69399999999996 311.904 365.46999999999997 L 309.311 362.30199999999996 L 309.311 353.15799999999996 C 309.311 348.40599999999995 305.99899999999997 346.39 305.99899999999997 346.39 C 305.99899999999997 346.39 302.68699999999995 348.406 302.68699999999995 353.15799999999996 L 302.68699999999995 362.30199999999996 L 300.09499999999997 365.46999999999997 C 292.17499999999995 366.76599999999996 285.04699999999997 370.51 279.647 375.90999999999997 C 272.879 382.67799999999994 268.703 391.96599999999995 268.703 402.26199999999994 C 268.703 412.55799999999994 272.87899999999996 421.84599999999995 279.647 428.61499999999995 C 280.727 429.69499999999994 281.807 430.631 282.959 431.56699999999995 C 282.311 432.287 281.663 433.006 280.943 433.655 C 279.791 432.71799999999996 278.639 431.71099999999996 277.55899999999997 430.631 C 270.287 423.35999999999996 265.823 413.279 265.823 402.19199999999995 C 265.823 391.1039999999999 270.287 381.02399999999994 277.55899999999997 373.75199999999995 C 283.60699999999997 367.70399999999995 291.599 363.59999999999997 300.455 362.376 L 300.455 352.152 C 300.455 346.68 305.99899999999997 343.152 305.99899999999997 343.152 C 305.99899999999997 343.152 311.54299999999995 346.752 311.54299999999995 352.152 L 311.54299999999995 362.376 z M 312.336 426.744 C 308.88 426.744 306.072 429.552 306.072 433.00800000000004 C 306.072 429.552 303.264 426.744 299.808 426.744 C 303.264 426.744 306.072 423.935 306.072 420.48 C 306.072 423.936 308.88 426.744 312.336 426.744 z M 306.072 396.288 C 306.072 396.288 312.624 428.76 344.664 448.848 C 344.664 448.848 321.048 440.35200000000003 306.072 406.296 C 291.096 440.352 267.48 448.848 267.48 448.848 C 299.52 428.76 306.072 396.288 306.072 396.288 z M 314.496 368.496 C 329.11199999999997 372.168 340.128 385.128 340.77599999999995 400.75199999999995 L 328.46299999999997 400.75199999999995 C 328.31899999999996 395.78399999999993 327.311 391.1039999999999 325.58299999999997 386.78399999999993 L 320.83099999999996 383.3999999999999 C 323.63899999999995 388.51199999999994 325.29499999999996 394.41599999999994 325.51099999999997 400.67999999999995 L 310.53499999999997 400.67999999999995 C 308.087 393.84 307.51099999999997 389.30499999999995 307.51099999999997 389.30499999999995 L 312.91099999999994 394.34499999999997 L 312.91099999999994 389.017 L 309.3829999999999 385.489 L 309.3829999999999 372.96 L 318.2389999999999 379.224 L 318.2389999999999 379.224 L 318.2389999999999 379.224 L 324.14199999999994 383.4 L 324.14199999999994 383.4 L 324.21399999999994 383.472 L 324.21399999999994 380.376 L 314.4939999999999 368.424 L 314.4939999999999 368.496 z M 293.904 379.296 L 288 383.472 L 287.928 383.544 L 287.928 380.448 L 297.648 368.496 C 283.03200000000004 372.168 272.016 385.128 271.36800000000005 400.75199999999995 L 283.68000000000006 400.75199999999995 C 283.82400000000007 395.78399999999993 284.83200000000005 391.1039999999999 286.56000000000006 386.78399999999993 L 291.31200000000007 383.3999999999999 C 288.5040000000001 388.51199999999994 286.84800000000007 394.41599999999994 286.63200000000006 400.67999999999995 L 301.60800000000006 400.67999999999995 C 304.05600000000004 393.84 304.63200000000006 389.30499999999995 304.63200000000006 389.30499999999995 L 299.2320000000001 394.34499999999997 L 299.2320000000001 389.017 L 302.7600000000001 385.489 L 302.7600000000001 372.96 L 293.9040000000001 379.224 L 293.9040000000001 379.296 z M 340.776 403.632 C 340.343 414.144 335.232 423.504 327.38300000000004 429.552 C 325.65500000000003 427.60900000000004 324.071 425.59200000000004 322.63100000000003 423.649 C 326.08700000000005 417.817 328.175 410.976 328.463 403.632 L 340.776 403.632 z M 284.76 429.552 C 276.984 423.504 271.8 414.144 271.368 403.632 L 283.68 403.632 C 283.896 410.976 286.056 417.817 289.512 423.649 C 288.072 425.592 286.488 427.608 284.76 429.552 z M 286.632 403.632 C 286.848 409.968 288.576 415.945 291.384 421.056 C 295.632 414.792 298.512 408.74399999999997 300.528 403.632 L 286.632 403.632 z M 320.904 421.056 C 323.712 415.945 325.44 410.03999999999996 325.656 403.632 L 311.76 403.632 C 313.776 408.744 316.728 414.792 320.904 421.056 z" stroke-linecap="round" />
</g>
</g>
</g>
<g transform="matrix(1.9211538461538462 0 0 1.9211538461538462 639.9173903846159 674.5213857578065)" id="text-logo"  >
<g style=""  paint-order="stroke"   >
		<g transform="matrix(1 0 0 1 0 0)" id="text-logo-path-0"  >
<path style="stroke: none; stroke-width: 0; stroke-dasharray: none; stroke-linecap: butt; stroke-dashoffset: 0; stroke-linejoin: miter; stroke-miterlimit: 4; fill: rgb(56,49,140); fill-rule: nonzero; opacity: 1;"  paint-order="stroke"  transform=" translate(-312.225, 15.05)" d="M 1.72 0 L 18.66 0 C 23.35 0 27.26 -3.87 27.26 -8.64 C 27.26 -11.91 25.37 -14.75 22.66 -16.21 C 24.77 -17.54 26.19 -19.91 26.19 -22.58 C 26.19 -26.75 22.83 -30.1 18.66 -30.1 L 1.72 -30.1 Z M 3.87 -2.15 L 3.87 -15.05 L 18.66 -15.05 C 22.32 -15.05 25.11 -12.3 25.11 -8.64 C 25.11 -4.9 22.32 -2.15 18.66 -2.15 Z M 3.87 -17.2 L 3.87 -27.95 L 18.66 -27.95 C 21.8 -27.95 24.04 -25.71 24.04 -22.58 C 24.04 -19.48 21.8 -17.2 18.66 -17.2 Z M 40.72 0 L 40.72 -12.9 L 53.79 -12.9 L 61.62 0 L 64.11 0 L 56.29 -12.94 C 60.63 -13.33 64.11 -17.03 64.11 -21.46 C 64.11 -26.23 60.2 -30.1 55.51 -30.1 L 38.57 -30.1 L 38.57 0 Z M 40.72 -15.05 L 40.72 -27.95 L 55.51 -27.95 C 59.17 -27.95 61.96 -25.2 61.96 -21.46 C 61.96 -17.8 59.17 -15.05 55.51 -15.05 Z M 77.57 0 L 77.57 -30.1 L 75.42 -30.1 L 75.42 0 Z M 88.88 0 L 98.6 0 C 109.39 0 113.65 -3.96 113.65 -15.09 C 113.65 -25.76 109.65 -30.1 98.6 -30.1 L 88.88 -30.1 Z M 91.03 -2.15 L 91.03 -27.95 L 98.6 -27.95 C 108.53 -27.95 111.5 -24.73 111.5 -15.09 C 111.5 -5.07 108.36 -2.15 98.6 -2.15 Z M 140.18 -14.02 L 153.21 -14.02 C 152.69 -7.05 147.28 -1.94 140.18 -1.94 C 132.7 -1.94 127.11 -7.57 127.11 -15.09 C 127.11 -22.58 132.7 -28.17 140.18 -28.17 C 143.92 -28.17 147.06 -26.79 149.43 -24.38 L 150.97 -25.93 C 148.22 -28.64 144.44 -30.32 140.18 -30.32 C 131.67 -30.32 124.96 -23.61 124.96 -15.09 C 124.96 -6.54 131.67 0.22 140.18 0.22 C 149.04 0.22 155.96 -7.1 155.36 -16.17 L 140.18 -16.17 Z M 166.71 0 L 188 0 L 188 -2.15 L 168.86 -2.15 L 168.86 -15.05 L 183.7 -15.05 L 183.7 -17.2 L 168.86 -17.2 L 168.86 -27.95 L 188 -27.95 L 188 -30.1 L 166.71 -30.1 Z M 211.65 0 L 220.85 -27.39 L 230.05 0 L 232.29 0 L 242.39 -30.1 L 240.16 -30.1 L 231.17 -3.31 L 222.18 -30.1 L 219.52 -30.1 L 210.53 -3.31 L 201.54 -30.1 L 199.31 -30.1 L 209.41 0 Z M 249.57 0 L 252.11 -6.24 L 269.22 -6.24 L 271.76 0 L 274.08 0 L 261.83 -30.1 L 259.51 -30.1 L 247.25 0 Z M 252.97 -8.39 L 260.67 -27.26 L 268.36 -8.39 Z M 301.9 -30.1 L 290.89 -15.74 L 279.89 -30.1 L 277.22 -30.1 L 289.82 -13.63 L 289.82 0 L 291.97 0 L 291.97 -13.63 L 304.57 -30.1 Z M 334.67 0 L 337.21 -6.24 L 354.32 -6.24 L 356.86 0 L 359.18 0 L 346.92 -30.1 L 344.6 -30.1 L 332.35 0 Z M 338.07 -8.39 L 345.76 -27.26 L 353.46 -8.39 Z M 370.49 0 L 391.77 0 L 391.77 -2.15 L 372.64 -2.15 L 372.64 -15.05 L 387.47 -15.05 L 387.47 -17.2 L 372.64 -17.2 L 372.64 -27.95 L 391.77 -27.95 L 391.77 -30.1 L 370.49 -30.1 Z M 405.23 0 L 405.23 -12.9 L 418.3 -12.9 L 426.13 0 L 428.62 0 L 420.8 -12.94 C 425.14 -13.33 428.62 -17.03 428.62 -21.46 C 428.62 -26.23 424.71 -30.1 420.02 -30.1 L 403.08 -30.1 L 403.08 0 Z M 405.23 -15.05 L 405.23 -27.95 L 420.02 -27.95 C 423.68 -27.95 426.47 -25.2 426.47 -21.46 C 426.47 -17.8 423.68 -15.05 420.02 -15.05 Z M 454.3 -1.94 C 446.81 -1.94 441.22 -7.57 441.22 -15.09 C 441.22 -22.58 446.81 -28.17 454.3 -28.17 C 461.78 -28.17 467.37 -22.58 467.37 -15.09 C 467.37 -7.57 461.78 -1.94 454.3 -1.94 Z M 439.07 -15.09 C 439.07 -6.54 445.78 0.22 454.3 0.22 C 462.81 0.22 469.52 -6.54 469.52 -15.09 C 469.52 -23.61 462.81 -30.32 454.3 -30.32 C 445.78 -30.32 439.07 -23.61 439.07 -15.09 Z M 510.63 0 L 510.63 -27.95 L 521.81 -27.95 L 521.81 -30.1 L 497.3 -30.1 L 497.3 -27.95 L 508.48 -27.95 L 508.48 0 Z M 533.11 0 L 554.4 0 L 554.4 -2.15 L 535.26 -2.15 L 535.26 -15.05 L 550.1 -15.05 L 550.1 -17.2 L 535.26 -17.2 L 535.26 -27.95 L 554.4 -27.95 L 554.4 -30.1 L 533.11 -30.1 Z M 589.06 -4.17 L 587.51 -5.72 C 585.14 -3.31 582.01 -1.94 578.35 -1.94 C 570.91 -1.94 565.28 -7.65 565.28 -15.09 C 565.28 -22.45 570.91 -28.17 578.35 -28.17 C 582.01 -28.17 585.14 -26.79 587.51 -24.38 L 589.06 -25.93 C 586.31 -28.64 582.52 -30.32 578.35 -30.32 C 569.88 -30.32 563.13 -23.48 563.13 -15.09 C 563.13 -6.62 569.88 0.22 578.35 0.22 C 582.52 0.22 586.31 -1.46 589.06 -4.17 Z M 602.52 0 L 602.52 -14.84 L 620.58 -14.84 L 620.58 0 L 622.73 0 L 622.73 -30.1 L 620.58 -30.1 L 620.58 -16.99 L 602.52 -16.99 L 602.52 -30.1 L 600.37 -30.1 L 600.37 0 Z" stroke-linecap="round" />
</g>
</g>
</g>
</svg>